<?xml version="1.0" encoding="iso-8859-1"?>
<!-- Generator: Adobe Illustrator 19.0.0, SVG Export Plug-In . SVG Version: 6.00 Build 0)  -->
<svg version="1.1" id="Capa_1" xmlns="http://www.w3.org/2000/svg" xmlns:xlink="http://www.w3.org/1999/xlink" x="0px" y="0px"
	 viewBox="0 0 383.739 383.739" style="enable-background:new 0 0 383.739 383.739;" xml:space="preserve">
<path style="fill:#00BBD3;" d="M269.845,123.488H50.416l-13.584,15.673l13.584,15.673h219.429c45.453,0,82.547,37.094,82.547,82.547
	s-37.094,82.547-82.547,82.547H36.833c-8.882,0-15.673,6.792-15.673,15.673s6.792,15.673,15.673,15.673h233.012
	c62.694,0,113.894-51.2,113.894-113.894S332.539,123.488,269.845,123.488z"/>
<path style="fill:#3A2C51;" d="M95.347,245.741c-4.18,0-8.882-1.567-12.016-5.224L3.918,149.61c-5.224-5.747-5.224-14.629,0-20.376
	l79.412-91.429c5.747-6.269,15.673-7.314,21.943-1.567s7.314,15.673,1.567,21.943l-70.008,80.98l70.531,80.457
	c5.747,6.269,5.224,16.196-1.567,21.943C102.661,244.696,99.004,245.741,95.347,245.741z"/>
<g>
</g>
<g>
</g>
<g>
</g>
<g>
</g>
<g>
</g>
<g>
</g>
<g>
</g>
<g>
</g>
<g>
</g>
<g>
</g>
<g>
</g>
<g>
</g>
<g>
</g>
<g>
</g>
<g>
</g>
</svg>
