<?xml version="1.0" encoding="iso-8859-1"?>
<!-- Generator: Adobe Illustrator 19.0.0, SVG Export Plug-In . SVG Version: 6.00 Build 0)  -->
<svg version="1.1" id="Capa_1" xmlns="http://www.w3.org/2000/svg" xmlns:xlink="http://www.w3.org/1999/xlink" x="0px" y="0px"
	 viewBox="0 0 389.747 389.747" style="enable-background:new 0 0 389.747 389.747;" xml:space="preserve">
<path style="fill:#3A2C51;" d="M341.682,179.2H15.673C6.792,179.2,0,185.992,0,194.873s6.792,15.673,15.673,15.673h326.008
	l15.673-15.673L341.682,179.2z"/>
<path style="fill:#00BBD3;" d="M385.045,183.902l-153.6-153.6c-6.269-6.269-16.196-6.269-21.943,0
	c-6.269,6.269-6.269,16.196,0,21.943L336.457,179.2l15.673,15.673l-15.673,15.673L209.502,337.502
	c-6.269,6.269-6.269,16.196,0,21.943c3.135,3.135,7.314,4.702,10.971,4.702c3.657,0,7.837-1.567,10.971-4.702l153.6-153.6
	C391.314,200.098,391.314,190.171,385.045,183.902z"/>
<g>
</g>
<g>
</g>
<g>
</g>
<g>
</g>
<g>
</g>
<g>
</g>
<g>
</g>
<g>
</g>
<g>
</g>
<g>
</g>
<g>
</g>
<g>
</g>
<g>
</g>
<g>
</g>
<g>
</g>
</svg>
