<?xml version="1.0"?>
<svg xmlns="http://www.w3.org/2000/svg" id="Capa_1" enable-background="new 0 0 479.995 479.995" height="512px" viewBox="0 0 479.995 479.995" width="512px" class=""><g><g><path d="m239.989 479.995c-17.664-.021-31.979-14.336-32-32v-338.757l-89.38 89.375c-12.506 12.476-32.752 12.476-45.258 0-12.479-12.505-12.479-32.751 0-45.256l144.012-144c12.507-12.476 32.751-12.476 45.258 0l144.009 144c12.497 12.498 12.497 32.76 0 45.257-12.498 12.497-32.76 12.497-45.258 0l-89.383-89.376v338.757c-.021 17.664-14.336 31.979-32 32zm-24-398.072c4.418 0 8 3.582 8 8v358.072c0 8.837 7.163 16 16 16s16-7.163 16-16v-358.072c-.001-4.418 3.58-8.001 7.999-8.001 2.123 0 4.159.843 5.659 2.344l103.042 103.029c6.249 6.249 16.38 6.25 22.629.001s6.25-16.38.001-22.629l-144.012-144c-6.254-6.238-16.376-6.238-22.63 0l-144.015 144.004c-6.329 6.167-6.46 16.297-.292 22.626s16.297 6.46 22.626.292c.099-.097.197-.195.294-.294l103.04-103.029c1.501-1.501 3.537-2.344 5.659-2.343z" data-original="#000000" class="active-path" data-old_color="#000000" fill="#D5D7E3"/></g></g> </svg>
